<?xml version="1.0" encoding="utf-8"?>
<!-- Generator: Adobe Illustrator 28.2.0, SVG Export Plug-In . SVG Version: 6.00 Build 0)  -->
<svg version="1.1" id="Layer_1" xmlns="http://www.w3.org/2000/svg" xmlns:xlink="http://www.w3.org/1999/xlink" x="0px" y="0px"
	 viewBox="0 0 576 288" style="enable-background:new 0 0 576 288;" xml:space="preserve">
<g>
	<g>
		<path d="M303.7,206.9c-9.3-10-14.7-24.9-14.7-42.4c0-17.4,5.4-32.4,14.7-42.2c8.3-8.7,19.7-13.7,33.6-13.7c21,0,25.5,9.1,31.4,9.1
			c2.7,0,3.9-1.2,3.9-4.6V71.7c0-2.3,1.9-4.2,4.4-4.2h10.4c2.3,0,4.2,1.9,4.2,4.2v141.2c0,2.3-1.9,4.2-4.2,4.2H380
			c-5.2,0-4.4-6.6-10.4-6.6c-6.6,0-10.4,10-32.2,10C323.5,220.4,312.1,215.6,303.7,206.9z M316.6,190.9c5.4,6.9,13.7,11,24.5,11
			c10.6,0,18.9-4.2,24.3-11c5.2-6.4,8.1-15.6,8.1-26.4c0-10.6-2.9-19.9-8.1-26.4c-5.4-6.9-13.7-10.8-24.3-10.8
			c-10.8,0-19.1,3.9-24.5,10.8c-5.4,6.4-8.1,15.8-8.1,26.4C308.5,175.4,311.2,184.5,316.6,190.9z"/>
		<path d="M216.2,212.9v-96.8c0-2.3,2.1-4.2,4.4-4.2h7.1c2.1,0,3.7,1.2,4.4,4.2c0.8,4.2,1.7,7.3,4.6,7.3c5.4,0,8.5-11.4,27.8-11.4
			H276c2.3,0,4.2,1.9,4.2,4.2v11.4c0,2.3-1.9,4.2-4.2,4.2h-12.5c-13.9,0-28.7,7.7-28.7,30.5V213c0,2.3-1.9,4.2-4.2,4.2h-10.2
			C218.3,217.1,216.2,215.2,216.2,212.9z"/>
		<path d="M413,186c0-18.7,11.6-32.6,37.8-32.6h33.4c1.5,0,2.1-0.6,2.1-2.1v-5.2c0-12.3-8.5-20.6-24.9-20.6
			c-15.2,0-24.9,6.4-25.5,14.7c-0.2,3.1-2.3,3.5-4.6,3.5h-9.8c-3.1,0-4.4-1.5-4.2-4.2c0.2-18.5,18.9-30.9,43.8-30.9
			c26.4,0,43.4,12,43.4,38v66.2c0,2.3-1.9,4.2-4.2,4.2H493c-5.8,0-4.4-6.6-10.6-6.6c-5.8,0-11.4,10-30.7,10
			C426.1,220.4,413,205.1,413,186z M456,203.8c16.2,0,30.3-9.1,30.3-25.5v-6c0-2.1-0.6-2.9-2.1-2.9h-32.4c-13.1,0-19.5,5.8-19.5,16
			C432.4,197.8,441.5,203.8,456,203.8z"/>
		<path d="M168.1,180.6h-55.3c-1.9,0-2.9,1-3.7,2.7L90.4,214c-1.2,2.3-2.9,3.1-4.8,3.1h-15c-3.3,0-4.4-2.9-2.7-5.4L150.1,75
			c1.5-2.1,3.1-3.3,5.2-3.3h27.3c2.3,0,4.4,1.9,4.4,4.2V213c0,2.3-1.9,4.2-4.2,4.2h-10.4c-2.3,0-4.4-1.9-4.4-4.2L168.1,180.6
			 M162.3,97.8c-4.5,0-5.4,0.4-6.6,2.5L123,157.9c-1.5,2.5-0.4,3.5,0.8,3.5H166c1.5,0,2.1-0.8,2.1-2.9v-57.9c0-2.1-0.6-2.9-2.1-2.9
			L162.3,97.8z"/>
	</g>
</g>
</svg>
